<svg width="25" height="25" viewBox="0 0 25 25" fill="none" xmlns="http://www.w3.org/2000/svg">
<mask id="mask0_2521_24" style="mask-type:alpha" maskUnits="userSpaceOnUse" x="0" y="0" width="25" height="25">
<rect x="0.912292" y="0.559082" width="24" height="24" fill="#D9D9D9"/>
</mask>
<g mask="url(#mask0_2521_24)">
<path d="M7.91229 17.5591H14.9123V15.5591H7.91229V17.5591ZM7.91229 13.5591H17.9123V11.5591H7.91229V13.5591ZM7.91229 9.55908H17.9123V7.55908H7.91229V9.55908ZM5.91229 21.5591C5.36229 21.5591 4.89146 21.3632 4.49979 20.9716C4.10813 20.5799 3.91229 20.1091 3.91229 19.5591V5.55908C3.91229 5.00908 4.10813 4.53825 4.49979 4.14658C4.89146 3.75492 5.36229 3.55908 5.91229 3.55908H19.9123C20.4623 3.55908 20.9331 3.75492 21.3248 4.14658C21.7165 4.53825 21.9123 5.00908 21.9123 5.55908V19.5591C21.9123 20.1091 21.7165 20.5799 21.3248 20.9716C20.9331 21.3632 20.4623 21.5591 19.9123 21.5591H5.91229ZM5.91229 19.5591H19.9123V5.55908H5.91229V19.5591Z" fill="#1C1B1F"/>
</g>
</svg>
