<svg width="25" height="25" viewBox="0 0 25 25" fill="none" xmlns="http://www.w3.org/2000/svg">
<mask id="mask0_2509_18" style="mask-type:alpha" maskUnits="userSpaceOnUse" x="0" y="0" width="25" height="25">
<rect x="0.912292" y="0.524414" width="24" height="24" fill="#D9D9D9"/>
</mask>
<g mask="url(#mask0_2509_18)">
<path d="M10.5123 16.1244L11.9123 14.6994L9.73729 12.5244L11.9123 10.3494L10.5123 8.92441L6.91229 12.5244L10.5123 16.1244ZM15.3123 16.1244L18.9123 12.5244L15.3123 8.92441L13.9123 10.3494L16.0873 12.5244L13.9123 14.6994L15.3123 16.1244ZM5.91229 21.5244C5.36229 21.5244 4.89146 21.3286 4.49979 20.9369C4.10813 20.5452 3.91229 20.0744 3.91229 19.5244V5.52441C3.91229 4.97441 4.10813 4.50358 4.49979 4.11191C4.89146 3.72025 5.36229 3.52441 5.91229 3.52441H19.9123C20.4623 3.52441 20.9331 3.72025 21.3248 4.11191C21.7165 4.50358 21.9123 4.97441 21.9123 5.52441V19.5244C21.9123 20.0744 21.7165 20.5452 21.3248 20.9369C20.9331 21.3286 20.4623 21.5244 19.9123 21.5244H5.91229ZM5.91229 19.5244H19.9123V5.52441H5.91229V19.5244Z" fill="#1C1B1F"/>
</g>
</svg>
