<svg width="25" height="25" viewBox="0 0 25 25" fill="none" xmlns="http://www.w3.org/2000/svg">
<mask id="mask0_2521_31" style="mask-type:alpha" maskUnits="userSpaceOnUse" x="0" y="0" width="25" height="25">
<rect x="0.846313" y="0.456543" width="24" height="24" fill="#D9D9D9"/>
</mask>
<g mask="url(#mask0_2521_31)">
<path d="M2.84631 20.4565V17.6565C2.84631 17.1065 2.98798 16.5899 3.27131 16.1065C3.55465 15.6232 3.94631 15.2565 4.44631 15.0065C5.29631 14.5732 6.25465 14.2065 7.32131 13.9065C8.38798 13.6065 9.56298 13.4565 10.8463 13.4565C11.3463 13.4565 11.8338 13.4815 12.3088 13.5315C12.7838 13.5815 13.2463 13.6565 13.6963 13.7565L11.9463 15.5065C11.763 15.4732 11.5838 15.4565 11.4088 15.4565H10.8463C9.66298 15.4565 8.60048 15.5982 7.65881 15.8815C6.71715 16.1649 5.94631 16.4732 5.34631 16.8065C5.19631 16.8899 5.07548 17.0065 4.98381 17.1565C4.89215 17.3065 4.84631 17.4732 4.84631 17.6565V18.4565H11.0963L13.0963 20.4565H2.84631ZM16.3963 20.8565L12.9463 17.4065L14.3463 16.0065L16.3963 18.0565L21.4463 13.0065L22.8463 14.4065L16.3963 20.8565ZM10.8463 12.4565C9.74631 12.4565 8.80465 12.0649 8.02131 11.2815C7.23798 10.4982 6.84631 9.55654 6.84631 8.45654C6.84631 7.35654 7.23798 6.41488 8.02131 5.63154C8.80465 4.84821 9.74631 4.45654 10.8463 4.45654C11.9463 4.45654 12.888 4.84821 13.6713 5.63154C14.4546 6.41488 14.8463 7.35654 14.8463 8.45654C14.8463 9.55654 14.4546 10.4982 13.6713 11.2815C12.888 12.0649 11.9463 12.4565 10.8463 12.4565ZM10.8463 10.4565C11.3963 10.4565 11.8671 10.2607 12.2588 9.86904C12.6505 9.47738 12.8463 9.00654 12.8463 8.45654C12.8463 7.90654 12.6505 7.43571 12.2588 7.04404C11.8671 6.65238 11.3963 6.45654 10.8463 6.45654C10.2963 6.45654 9.82548 6.65238 9.43381 7.04404C9.04215 7.43571 8.84631 7.90654 8.84631 8.45654C8.84631 9.00654 9.04215 9.47738 9.43381 9.86904C9.82548 10.2607 10.2963 10.4565 10.8463 10.4565Z" fill="#1C1B1F"/>
</g>
</svg>
