<svg width="64" height="68" viewBox="0 0 64 68" fill="none" xmlns="http://www.w3.org/2000/svg">
<g clip-path="url(#clip0_2002_665)">
<path d="M44.0213 39.058H41.5558C40.9344 39.058 40.4534 39.5466 40.4534 40.133C40.4534 40.7389 40.9545 41.2079 41.5558 41.2079H52.5202C53.1416 41.2079 53.6226 40.7193 53.6226 40.133C53.6226 39.5271 53.1215 39.058 52.5202 39.058H50.0547C59.3554 31.0837 63.9857 23.1875 63.4645 16.0927C62.7229 5.61663 54.4244 0.828125 47.048 0.828125C39.6716 0.828125 31.3732 5.61663 30.6115 16.1123C30.0903 23.1875 34.7206 31.0837 44.0213 39.058ZM32.8164 16.2491C33.4779 7.0825 40.4333 2.97807 47.048 2.97807C53.6427 2.97807 60.5981 7.0825 61.2797 16.2491C61.901 24.712 54.0235 33.0772 47.048 38.7453C40.0725 33.0772 32.195 24.7316 32.8164 16.2491Z" fill="url(#paint0_linear_2002_665)"/>
<path d="M37.5269 17.6759C37.5269 22.7967 41.7963 26.9598 47.048 26.9598C52.2997 26.9598 56.5692 22.7967 56.5692 17.6759C56.5692 12.5552 52.2997 8.39209 47.048 8.39209C41.7963 8.39209 37.5269 12.5552 37.5269 17.6759ZM47.048 10.542C51.077 10.542 54.3442 13.7279 54.3442 17.6564C54.3442 21.5849 51.0569 24.7707 47.048 24.7707C43.0191 24.7707 39.7518 21.5849 39.7518 17.6564C39.7518 13.7474 43.0191 10.542 47.048 10.542Z" fill="url(#paint1_linear_2002_665)"/>
<path d="M15.4378 56.4336C15.097 51.6841 11.3286 49.5146 7.98121 49.5146C4.63377 49.5146 0.885441 51.6841 0.524639 56.4336C0.284104 59.6389 2.38878 63.2156 6.59814 66.8315H5.47564C5.19502 66.8315 4.97453 67.0464 4.97453 67.3201C4.97453 67.5937 5.19502 67.8087 5.47564 67.8087H10.4467C10.7273 67.8087 10.9478 67.5937 10.9478 67.3201C10.9478 67.0464 10.7273 66.8315 10.4467 66.8315H9.32419C13.5736 63.2352 15.6783 59.6389 15.4378 56.4336ZM8.00125 66.6946C4.83422 64.1343 1.26629 60.3425 1.54691 56.5117C1.84758 52.3487 4.99457 50.4919 8.00125 50.4919C10.9879 50.4919 14.1549 52.3487 14.4556 56.5117C14.7162 60.3425 11.1482 64.1343 8.00125 66.6946Z" fill="url(#paint2_linear_2002_665)"/>
<path d="M60.6583 37.8852C60.077 37.9439 59.6561 38.4325 59.6561 38.9993V57.137C59.6561 61.8473 55.7474 65.6586 50.9166 65.6586H16.5002C15.8788 65.6586 15.3977 66.1472 15.3977 66.7335C15.3977 67.3394 15.8988 67.8085 16.5002 67.8085H50.8966C56.95 67.8085 61.861 63.02 61.861 57.1174V38.9407C61.861 38.3348 61.3198 37.8266 60.6583 37.8852Z" fill="url(#paint3_linear_2002_665)"/>
<path d="M4.89438 20.7836C4.89438 16.0733 8.80306 12.262 13.6338 12.262H23.5158C24.0971 12.262 24.6182 11.8516 24.6583 11.2848C24.7184 10.6398 24.1973 10.0925 23.5559 10.0925H13.6338C7.58035 10.0925 2.66943 14.881 2.66943 20.7836V45.8402C2.66943 46.4461 3.17055 46.9152 3.77188 46.9152C4.39326 46.9152 4.87433 46.4265 4.87433 45.8402V20.7836H4.89438Z" fill="url(#paint4_linear_2002_665)"/>
<path d="M3.67163 57.137C3.67163 54.8111 5.61595 52.9348 7.98121 52.9348C5.61595 52.9348 3.67163 54.8307 3.67163 57.137C3.67163 59.4628 5.61595 61.3391 7.98121 61.3391C5.61595 61.3587 3.67163 59.4628 3.67163 57.137Z" fill="url(#paint5_linear_2002_665)"/>
<path d="M12.3108 57.137C12.3108 54.8111 10.3665 52.9348 8.00123 52.9348C5.61593 52.9348 3.69165 54.8307 3.69165 57.137C3.69165 59.4433 5.63597 61.3391 8.00123 61.3391C10.3665 61.3587 12.3108 59.4628 12.3108 57.137ZM8.00123 60.3814C6.17717 60.3814 4.69388 58.9351 4.69388 57.1565C4.69388 55.3779 6.17717 53.9316 8.00123 53.9316C9.82528 53.9316 11.3086 55.3779 11.3086 57.1565C11.3086 58.9156 9.82528 60.3814 8.00123 60.3814Z" fill="url(#paint6_linear_2002_665)"/>
<path d="M8.00122 52.9348C10.3865 52.9348 12.3108 54.8307 12.3108 57.137C12.3108 59.4433 10.3665 61.3391 8.00122 61.3391C10.3865 61.3391 12.3108 59.4433 12.3108 57.137C12.3108 54.8307 10.3665 52.9348 8.00122 52.9348Z" fill="url(#paint7_linear_2002_665)"/>
</g>
<defs>
<linearGradient id="paint0_linear_2002_665" x1="-0.214732" y1="97.9066" x2="53.7602" y2="2.02937" gradientUnits="userSpaceOnUse">
<stop offset="0.2407" stop-color="#5B2F89"/>
<stop offset="0.9563" stop-color="#EA4468"/>
</linearGradient>
<linearGradient id="paint1_linear_2002_665" x1="-0.400163" y1="97.8023" x2="53.5748" y2="1.92507" gradientUnits="userSpaceOnUse">
<stop offset="0.2407" stop-color="#5B2F89"/>
<stop offset="0.9563" stop-color="#EA4468"/>
</linearGradient>
<linearGradient id="paint2_linear_2002_665" x1="2.68019" y1="66.3068" x2="56.6551" y2="-29.5705" gradientUnits="userSpaceOnUse">
<stop offset="0.2407" stop-color="#5B2F89"/>
<stop offset="0.9563" stop-color="#EA4468"/>
</linearGradient>
<linearGradient id="paint3_linear_2002_665" x1="12.3781" y1="107.568" x2="67.8217" y2="9.08155" gradientUnits="userSpaceOnUse">
<stop offset="0.2407" stop-color="#5B2F89"/>
<stop offset="0.9563" stop-color="#EA4468"/>
</linearGradient>
<linearGradient id="paint4_linear_2002_665" x1="-26.0549" y1="82.4106" x2="27.4146" y2="-12.5688" gradientUnits="userSpaceOnUse">
<stop offset="0.2407" stop-color="#5B2F89"/>
<stop offset="0.9563" stop-color="#EA4468"/>
</linearGradient>
<linearGradient id="paint5_linear_2002_665" x1="1.66241" y1="65.7336" x2="55.6373" y2="-30.1436" gradientUnits="userSpaceOnUse">
<stop offset="0.2407" stop-color="#5B2F89"/>
<stop offset="0.9563" stop-color="#EA4468"/>
</linearGradient>
<linearGradient id="paint6_linear_2002_665" x1="2.59614" y1="66.2593" x2="56.5711" y2="-29.618" gradientUnits="userSpaceOnUse">
<stop offset="0.2407" stop-color="#5B2F89"/>
<stop offset="0.9563" stop-color="#EA4468"/>
</linearGradient>
<linearGradient id="paint7_linear_2002_665" x1="3.52971" y1="66.7848" x2="57.5046" y2="-29.0924" gradientUnits="userSpaceOnUse">
<stop offset="0.2407" stop-color="#5B2F89"/>
<stop offset="0.9563" stop-color="#EA4468"/>
</linearGradient>
<clipPath id="clip0_2002_665">
<rect width="63" height="67" fill="white" transform="translate(0.524658 0.828125)"/>
</clipPath>
</defs>
</svg>
