<svg width="25" height="25" viewBox="0 0 25 25" fill="none" xmlns="http://www.w3.org/2000/svg">
<mask id="mask0_2521_38" style="mask-type:alpha" maskUnits="userSpaceOnUse" x="0" y="0" width="25" height="25">
<rect x="0.912292" y="0.466309" width="24" height="24" fill="#D9D9D9"/>
</mask>
<g mask="url(#mask0_2521_38)">
<path d="M11.9123 19.8913V13.0413L5.91229 9.56631V16.4163L11.9123 19.8913ZM13.9123 19.8913L19.9123 16.4163V9.56631L13.9123 13.0413V19.8913ZM11.9123 22.1913L4.91229 18.1663C4.59563 17.983 4.34979 17.7413 4.17479 17.4413C3.99979 17.1413 3.91229 16.808 3.91229 16.4413V8.49131C3.91229 8.12464 3.99979 7.79131 4.17479 7.49131C4.34979 7.19131 4.59563 6.94964 4.91229 6.76631L11.9123 2.74131C12.229 2.55798 12.5623 2.46631 12.9123 2.46631C13.2623 2.46631 13.5956 2.55798 13.9123 2.74131L20.9123 6.76631C21.229 6.94964 21.4748 7.19131 21.6498 7.49131C21.8248 7.79131 21.9123 8.12464 21.9123 8.49131V16.4413C21.9123 16.808 21.8248 17.1413 21.6498 17.4413C21.4748 17.7413 21.229 17.983 20.9123 18.1663L13.9123 22.1913C13.5956 22.3746 13.2623 22.4663 12.9123 22.4663C12.5623 22.4663 12.229 22.3746 11.9123 22.1913ZM16.9123 8.99131L18.8373 7.89131L12.9123 4.46631L10.9623 5.59131L16.9123 8.99131ZM12.9123 11.3163L14.8623 10.1913L8.93729 6.76631L6.98729 7.89131L12.9123 11.3163Z" fill="#1C1B1F"/>
</g>
</svg>
