<svg width="25" height="25" viewBox="0 0 25 25" fill="none" xmlns="http://www.w3.org/2000/svg">
<mask id="mask0_2507_10" style="mask-type:alpha" maskUnits="userSpaceOnUse" x="0" y="0" width="25" height="25">
<rect x="0.846344" y="0.524414" width="24" height="24" fill="#D9D9D9"/>
</mask>
<g mask="url(#mask0_2507_10)">
<path d="M14.8463 13.5244C14.013 13.5244 13.3047 13.2327 12.7213 12.6494C12.138 12.0661 11.8463 11.3577 11.8463 10.5244C11.8463 9.69108 12.138 8.98275 12.7213 8.39941C13.3047 7.81608 14.013 7.52441 14.8463 7.52441C15.6797 7.52441 16.388 7.81608 16.9713 8.39941C17.5547 8.98275 17.8463 9.69108 17.8463 10.5244C17.8463 11.3577 17.5547 12.0661 16.9713 12.6494C16.388 13.2327 15.6797 13.5244 14.8463 13.5244ZM7.84634 16.5244C7.29634 16.5244 6.82551 16.3286 6.43384 15.9369C6.04218 15.5452 5.84634 15.0744 5.84634 14.5244V6.52441C5.84634 5.97441 6.04218 5.50358 6.43384 5.11191C6.82551 4.72025 7.29634 4.52441 7.84634 4.52441H21.8463C22.3963 4.52441 22.8672 4.72025 23.2588 5.11191C23.6505 5.50358 23.8463 5.97441 23.8463 6.52441V14.5244C23.8463 15.0744 23.6505 15.5452 23.2588 15.9369C22.8672 16.3286 22.3963 16.5244 21.8463 16.5244H7.84634ZM9.84634 14.5244H19.8463C19.8463 13.9744 20.0422 13.5036 20.4338 13.1119C20.8255 12.7202 21.2963 12.5244 21.8463 12.5244V8.52441C21.2963 8.52441 20.8255 8.32858 20.4338 7.93691C20.0422 7.54525 19.8463 7.07441 19.8463 6.52441H9.84634C9.84634 7.07441 9.65051 7.54525 9.25884 7.93691C8.86718 8.32858 8.39634 8.52441 7.84634 8.52441V12.5244C8.39634 12.5244 8.86718 12.7202 9.25884 13.1119C9.65051 13.5036 9.84634 13.9744 9.84634 14.5244ZM20.8463 20.5244H3.84634C3.29634 20.5244 2.82551 20.3286 2.43384 19.9369C2.04218 19.5452 1.84634 19.0744 1.84634 18.5244V7.52441H3.84634V18.5244H20.8463V20.5244Z" fill="#1C1B1F"/>
</g>
</svg>
