<svg width="71" height="71" viewBox="0 0 71 71" fill="none" xmlns="http://www.w3.org/2000/svg">
<path d="M6.32719 38.3046C6.57237 38.3046 6.81756 38.2229 7.02188 38.0798L22.6319 26.0658L41.695 24.6764C41.9401 24.656 42.1853 24.5539 42.3692 24.3904L56.9985 11.13L56.9781 12.6624C56.9577 13.2958 57.4685 13.8066 58.0814 13.8066H58.1018C58.7148 13.8066 59.2256 13.3163 59.2256 12.7033L59.2869 8.57604C59.2869 7.96308 58.817 7.45228 58.204 7.43184L54.0768 7.24796C53.4638 7.22752 52.9326 7.69746 52.8917 8.33085C52.8713 8.96424 53.3412 9.47504 53.9746 9.51591L55.364 9.5772L41.1229 22.4902L22.1007 23.8796C21.8759 23.9 21.6716 23.9818 21.4877 24.1043L5.6325 36.2818C5.14213 36.67 5.03997 37.3647 5.42818 37.8551C5.65293 38.1411 6.00028 38.3046 6.32719 38.3046Z" fill="url(#paint0_linear_2002_690)"/>
<path d="M69.3802 68.6461H61.8408V30.0705C61.8408 29.4576 61.33 28.9468 60.7171 28.9468H51.8496C51.2162 28.9468 50.7258 29.4576 50.7258 30.0705V68.6461H48.0084V38.8358C48.0084 38.2229 47.4976 37.7121 46.8846 37.7121H38.0171C37.3837 37.7121 36.8934 38.2229 36.8934 38.8358V68.6461H34.1759V46.1505C34.1759 45.5171 33.6651 45.0267 33.0521 45.0267H24.1847C23.5513 45.0267 23.0609 45.5375 23.0609 46.1505V68.6461H20.323V52.0962C20.323 51.4832 19.8122 50.9724 19.1993 50.9724H10.3318C9.69838 50.9724 9.20801 51.4832 9.20801 52.0962V68.6461H2.79237V2.03782C2.79237 1.42486 2.28157 0.914062 1.64817 0.914062C1.03521 0.914062 0.524414 1.42486 0.524414 2.03782V69.7699C0.524414 70.4033 1.03521 70.8936 1.64817 70.8936H69.3802C70.0136 70.8936 70.504 70.3828 70.504 69.7699C70.5244 69.1569 70.0136 68.6461 69.3802 68.6461ZM18.0551 68.6461H11.4555V53.22H18.0551V68.6461ZM31.908 51.9327V54.548V57.6333V60.2486V63.3338V65.9491V68.6461H25.3084V67.1546V64.0489V61.4336V58.3484V55.7331V52.6479V50.0326V47.2538H30.1099H31.908V48.8271V51.9327ZM39.1409 68.6461V39.98H45.7404V68.6665H39.1409V68.6461ZM59.5933 32.7675V35.8528V38.4681V41.5533V44.1686V47.2538V49.8691V52.9543V55.5696V58.6549V61.2702V64.3554V66.9707V68.6461H56.692H52.9938V68.1762V65.091V62.4756V59.3904V56.7751V53.6899V51.0746V47.9894V45.3741V42.2888V39.6735V36.5883V33.973V31.1943H57.7953H59.5933V32.7675Z" fill="url(#paint1_linear_2002_690)"/>
<defs>
<linearGradient id="paint0_linear_2002_690" x1="-12.7692" y1="63.305" x2="53.6056" y2="6.65757" gradientUnits="userSpaceOnUse">
<stop offset="0.2407" stop-color="#5B2F89"/>
<stop offset="0.9563" stop-color="#EA4468"/>
</linearGradient>
<linearGradient id="paint1_linear_2002_690" x1="-5.94603" y1="71.2999" x2="60.4288" y2="14.6525" gradientUnits="userSpaceOnUse">
<stop offset="0.2407" stop-color="#5B2F89"/>
<stop offset="0.9563" stop-color="#EA4468"/>
</linearGradient>
</defs>
</svg>
