<svg width="76" height="71" viewBox="0 0 76 71" fill="none" xmlns="http://www.w3.org/2000/svg">
<g clip-path="url(#clip0_2002_684)">
<path d="M62.5691 70.9141C59.6165 70.9141 57.2263 68.4805 57.2263 65.4744C57.2263 64.3906 57.5477 63.3272 58.1503 62.4274L58.3712 62.1002H22.8396L23.0606 62.4274C23.6631 63.3272 23.9845 64.3906 23.9845 65.4744C23.9845 68.4805 21.5943 70.9141 18.6417 70.9141C15.6891 70.9141 13.2989 68.4805 13.2989 65.4744C13.2989 64.3906 13.6203 63.3272 14.2229 62.4274L14.4438 62.1002H6.67064C6.10824 62.1002 5.64627 61.6298 5.64627 61.0572V18.092H1.54878C0.986385 18.092 0.524414 17.6216 0.524414 17.049V12.4478C0.524414 11.8752 0.986385 11.4049 1.54878 11.4049H6.69072C9.72367 11.4049 12.1942 13.9202 12.1942 17.0081V55.4539H72.3107C74.0782 55.4539 75.5043 56.9059 75.5043 58.685C75.5043 60.6687 74.1586 62.1206 72.3107 62.1206H66.7671L66.988 62.4478C67.5906 63.3476 67.9119 64.411 67.9119 65.4948C67.9119 68.4805 65.5017 70.9141 62.5691 70.9141ZM62.5691 62.1206C60.7413 62.1206 59.255 63.6339 59.255 65.4948C59.255 67.3558 60.7413 68.8691 62.5691 68.8691C64.3969 68.8691 65.8833 67.3558 65.8833 65.4948C65.8833 63.6339 64.3769 62.1206 62.5691 62.1206ZM18.6216 62.1206C16.7938 62.1206 15.3075 63.6339 15.3075 65.4948C15.3075 67.3558 16.7938 68.8691 18.6216 68.8691C20.4494 68.8691 21.9358 67.3558 21.9358 65.4948C21.9358 63.6339 20.4494 62.1206 18.6216 62.1206ZM2.57316 16.0061H6.22875C7.05227 16.0061 7.69501 16.6809 7.69501 17.5194V60.0347H72.3308C73.1744 60.0347 73.4757 59.3394 73.4757 58.685C73.4757 58.0511 72.9534 57.5398 72.3308 57.5398H11.1899C10.6275 57.5398 10.1656 57.0695 10.1656 56.4969V17.0286C10.1656 15.0858 8.61895 13.4908 6.69072 13.4908H2.57316V16.0061ZM15.1267 53.5112C14.5643 53.5112 14.1023 53.0409 14.1023 52.4683V29.9938C14.1023 29.7893 14.1626 29.5848 14.2831 29.4212L17.9186 23.8588C18.0994 23.5725 18.4208 23.3885 18.7622 23.3885H28.8252V7.49893C28.8252 7.29443 28.8854 7.08993 29.0059 6.92633L32.6615 1.36396C32.8423 1.07766 33.1637 0.914062 33.5051 0.914062H55.8605C56.202 0.914062 56.5233 1.07766 56.7041 1.36396L60.3798 6.92633C60.5003 7.08993 60.5606 7.29443 60.5606 7.49893V23.3885H70.8445C71.1859 23.3885 71.5073 23.5521 71.688 23.8588L75.3436 29.4212C75.4441 29.5848 75.5244 29.7893 75.5244 29.9938L75.5445 52.4683C75.5445 52.7341 75.4441 53 75.2432 53.2045C75.0424 53.409 74.8013 53.5112 74.5201 53.5112H15.1267ZM45.8177 51.4253H73.4757L73.4556 31.0163H45.8177V51.4253ZM16.1511 51.4253H43.789V31.0163H16.1511V51.4253ZM60.5405 28.9509H72.5718L70.282 25.4744H60.5405V28.9509ZM30.8739 28.9509H58.5118V8.54187H30.8739V28.9509ZM17.0349 28.9509H28.8252V25.4744H19.3246L17.0349 28.9509ZM31.7577 6.47644H57.608L55.3182 2.99995H34.0675L31.7577 6.47644Z" fill="url(#paint0_linear_2002_684)"/>
</g>
<defs>
<linearGradient id="paint0_linear_2002_684" x1="17.9358" y1="71.3649" x2="58.5239" y2="2.31613" gradientUnits="userSpaceOnUse">
<stop offset="0.2407" stop-color="#5B2F89"/>
<stop offset="0.9563" stop-color="#EA4468"/>
</linearGradient>
<clipPath id="clip0_2002_684">
<rect width="75" height="70" fill="white" transform="translate(0.524414 0.914062)"/>
</clipPath>
</defs>
</svg>
