<svg width="110" height="68" viewBox="0 0 110 68" fill="none" xmlns="http://www.w3.org/2000/svg">
<g clip-path="url(#clip0_2002_681)">
<path d="M109.664 38.8788L92.7265 11.839C92.52 11.514 92.1482 11.2905 91.7351 11.2905H73.6614C73.021 11.2905 72.5046 11.7984 72.5046 12.4282V51.9415H69.0551L68.766 1.96578C68.766 1.33601 68.2496 0.828125 67.6092 0.828125H12.4792C11.8389 0.828125 11.3225 1.33601 11.3225 1.96578L10.1038 23.9673H6.28254C5.89008 23.9673 5.58025 24.272 5.58025 24.658V24.9424C5.58025 25.3284 5.89008 25.6332 6.28254 25.6332H10.0006L9.81466 29.0868H4.09304C3.70058 29.0868 3.39075 29.3915 3.39075 29.7775V30.0619C3.39075 30.4479 3.70058 30.7526 4.09304 30.7526H9.73204L9.54614 34.2062H1.55239C1.15993 34.2062 0.850098 34.511 0.850098 34.897V35.1814C0.850098 35.5674 1.15993 35.8721 1.55239 35.8721H9.46351L8.22417 58.2799C8.22417 58.9097 8.74057 59.4176 9.38089 59.4176H16.3832L16.5071 60.0677C16.7963 61.571 17.4779 62.9931 18.4487 64.1917L19.5228 65.5122H11.4671C10.8268 65.5122 10.3104 66.0201 10.3104 66.6498C10.3104 67.2796 10.8268 67.7875 11.4671 67.7875H25.389H25.4097C25.451 67.7875 25.4923 67.7672 25.5336 67.7672H25.5749H25.6163C25.6782 67.7672 25.7402 67.7672 25.8022 67.7875C25.8641 67.7875 25.9261 67.7875 25.9674 67.7875C30.5943 67.7875 34.5808 64.537 35.469 60.0677L35.5929 59.4176H67.8571L67.981 59.3973L68.0843 59.4176H73.2895H73.3102C73.3515 59.4176 73.3722 59.4176 73.4135 59.3973H73.4755H73.5374C73.5787 59.3973 73.5994 59.3973 73.6407 59.4176H73.6614H83.2456L83.3695 60.0677C83.6587 61.571 84.3403 62.9931 85.3111 64.1917L86.3852 65.5122H78.3502C77.7099 65.5122 77.1935 66.0201 77.1935 66.6498C77.1935 67.2796 77.7099 67.7875 78.3502 67.7875H92.3341L92.4993 67.7672H92.5613C92.6233 67.7672 92.6646 67.7672 92.7265 67.7875C92.7679 67.7875 92.8298 67.7875 92.8711 67.7875C97.498 67.7875 101.485 64.537 102.373 60.0677L102.497 59.4176H108.652C109.292 59.4176 109.809 58.9097 109.809 58.2799V39.4273C109.829 39.2648 109.767 39.0616 109.664 38.8788ZM33.9611 3.10344H44.0411V19.7214L39.6415 16.8772C39.4556 16.7554 39.2283 16.6944 39.0011 16.6944C38.7739 16.6944 38.5467 16.7554 38.3608 16.8772L33.9611 19.7214V3.10344ZM25.9881 65.5528C21.9189 65.5528 18.6346 62.3024 18.6346 58.3205C18.6346 54.3387 21.9395 51.0883 25.9881 51.0883C30.0366 51.0883 33.3415 54.3387 33.3415 58.3205C33.3415 62.3024 30.0572 65.5528 25.9881 65.5528ZM35.6136 57.1829L35.4897 56.5328C34.6221 52.0634 30.6149 48.813 25.9881 48.813C21.3612 48.813 17.3746 52.0634 16.4864 56.5328L16.3625 57.1829H10.517L11.7356 35.9127H14.9373C15.3297 35.9127 15.6396 35.608 15.6396 35.222V34.9376C15.6396 34.5516 15.3297 34.2469 14.9373 34.2469H11.8389L12.0455 30.7933H17.5192C17.9117 30.7933 18.2215 30.4885 18.2215 30.1025V29.8181C18.2215 29.4321 17.9117 29.1274 17.5192 29.1274H12.1488L12.3553 25.6738H19.7294C20.1218 25.6738 20.4317 25.3691 20.4317 24.9831V24.6987C20.4317 24.3127 20.1218 24.0079 19.7294 24.0079H12.4586L13.6566 3.14407H31.689V21.8748C31.689 22.3014 31.9162 22.6874 32.288 22.8703C32.4533 22.9515 32.6392 23.0125 32.8457 23.0125C33.0729 23.0125 33.3002 22.9515 33.4861 22.8296L39.0424 19.2338L44.5988 22.8296C44.7847 22.9515 45.0119 23.0125 45.2391 23.0125C45.425 23.0125 45.6316 22.9718 45.7968 22.8703C46.1686 22.6671 46.3959 22.2811 46.3959 21.8748V3.10344H66.4938L66.8243 57.1829H35.6136ZM72.5046 57.1829H69.0965L69.0758 54.2168H72.5046V57.1829ZM92.8918 65.5528C88.8226 65.5528 85.5384 62.3024 85.5384 58.3205C85.5384 54.3387 88.8433 51.0883 92.8918 51.0883C96.9403 51.0883 100.245 54.3387 100.245 58.3205C100.245 62.3024 96.961 65.5528 92.8918 65.5528ZM107.516 57.1829H102.517L102.393 56.5328C101.526 52.0634 97.5187 48.813 92.8918 48.813C88.2649 48.813 84.2784 52.0634 83.3902 56.5328L83.2662 57.1829H74.8181V13.5658H91.0947L107.516 39.793V57.1829Z" fill="url(#paint0_linear_2002_681)"/>
</g>
<defs>
<linearGradient id="paint0_linear_2002_681" x1="3.12119" y1="59.5016" x2="106.199" y2="6.46012" gradientUnits="userSpaceOnUse">
<stop offset="0.2407" stop-color="#5B2F89"/>
<stop offset="0.9563" stop-color="#EA4468"/>
</linearGradient>
<clipPath id="clip0_2002_681">
<rect width="109" height="67" fill="white" transform="translate(0.829102 0.828125)"/>
</clipPath>
</defs>
</svg>
