<svg width="68" height="68" viewBox="0 0 68 68" fill="none" xmlns="http://www.w3.org/2000/svg">
<path d="M59.6911 50.2877H51.9799V42.5961C51.9799 41.9931 51.4972 41.5241 50.8937 41.5241C50.2902 41.5241 49.8208 42.0065 49.8208 42.5961V50.2877H42.1231C41.5196 50.2877 41.0502 50.7701 41.0502 51.3731C41.0502 51.9761 41.533 52.4451 42.1231 52.4451H49.8208V60.1367C49.8208 60.7397 50.3036 61.2087 50.8937 61.2087C51.4972 61.2087 51.9799 60.7263 51.9799 60.1367V52.4451H59.6777C60.2812 52.4451 60.764 51.9627 60.764 51.3731C60.764 50.7701 60.2812 50.2877 59.6911 50.2877ZM59.6911 50.2877H51.9799V42.5961C51.9799 41.9931 51.4972 41.5241 50.8937 41.5241C50.2902 41.5241 49.8208 42.0065 49.8208 42.5961V50.2877H42.1231C41.5196 50.2877 41.0502 50.7701 41.0502 51.3731C41.0502 51.9761 41.533 52.4451 42.1231 52.4451H49.8208V60.1367C49.8208 60.7397 50.3036 61.2087 50.8937 61.2087C51.4972 61.2087 51.9799 60.7263 51.9799 60.1367V52.4451H59.6777C60.2812 52.4451 60.764 51.9627 60.764 51.3731C60.764 50.7701 60.2812 50.2877 59.6911 50.2877ZM58.7121 36.9145V18.1143C58.7121 17.7257 58.511 17.3773 58.1757 17.1763L30.0668 0.975661C29.7315 0.788061 29.3158 0.788061 28.9805 0.975661L0.885062 17.1897C0.549794 17.3773 0.348633 17.7391 0.348633 18.1277V50.5423C0.348633 50.9309 0.549794 51.2793 0.885062 51.4803L28.9805 67.6943C29.1415 67.7881 29.3292 67.8417 29.517 67.8417C29.7047 67.8417 29.8925 67.7881 30.0534 67.6943L38.8911 62.6023C41.8951 65.8049 46.1597 67.8149 50.8937 67.8149C59.9593 67.8149 67.3352 60.4449 67.3352 51.3865C67.3486 45.1287 63.8484 39.7017 58.7121 36.9145ZM46.039 12.6739L19.5662 27.9499C19.2309 28.1375 19.0298 28.4993 19.0298 28.8879V34.7303L11.9087 30.6165V24.1443L38.9045 8.56006L46.039 12.6739ZM29.5304 65.4967L2.50776 49.9125V18.7441L29.5304 3.15986L36.7588 7.32726L10.2726 22.5899C9.9373 22.7775 9.73614 23.1393 9.73614 23.5279V31.2463C9.73614 31.6349 9.9373 31.9833 10.2726 32.1843L19.5528 37.5443C19.7137 37.6381 19.9015 37.6917 20.0892 37.6917C20.277 37.6917 20.4647 37.6381 20.6257 37.5443C20.9609 37.3567 21.1621 36.9949 21.1621 36.6063V29.5043L48.1981 13.9201L56.553 18.7441V35.9363C54.7962 35.2931 52.8919 34.9447 50.9071 34.9447C41.8414 34.9447 34.4655 42.3147 34.4655 51.3731C34.4655 54.9241 35.6054 58.2071 37.5232 60.8871L29.5304 65.4967ZM50.9071 65.6441C43.035 65.6441 36.6247 59.2389 36.6247 51.3731C36.6247 43.5073 43.035 37.1021 50.9071 37.1021C58.7792 37.1021 65.1895 43.5073 65.1895 51.3731C65.1895 59.2389 58.7792 65.6441 50.9071 65.6441ZM59.6911 50.2877H51.9934V42.5961C51.9934 41.9931 51.5106 41.5241 50.9071 41.5241C50.3036 41.5241 49.8342 42.0065 49.8342 42.5961V50.2877H42.1365C41.533 50.2877 41.0636 50.7701 41.0636 51.3731C41.0636 51.9761 41.5464 52.4451 42.1365 52.4451H49.8342V60.1367C49.8342 60.7397 50.317 61.2087 50.9071 61.2087C51.5106 61.2087 51.9934 60.7263 51.9934 60.1367V52.4451H59.6911C60.2946 52.4451 60.7774 51.9627 60.7774 51.3731C60.764 50.7835 60.2812 50.2877 59.6911 50.2877Z" fill="url(#paint0_linear_2002_664)"/>
<defs>
<linearGradient id="paint0_linear_2002_664" x1="19.2481" y1="62.0652" x2="48.393" y2="11.5441" gradientUnits="userSpaceOnUse">
<stop offset="0.2407" stop-color="#5B2F89"/>
<stop offset="0.9563" stop-color="#EA4468"/>
</linearGradient>
</defs>
</svg>
